# xmcd
#
# Track frame offsets: 
#        183
#        15215
#        27838
#        43230
#        59620
#        73755
#        91503
#        105218
#        120970
#        137248
#        152760
#        166730
#        184265
#        201118
#
# Disc length: 2905 seconds
#
# Revision: 5
# Processed by: cddbd v1.5.2PL0 Copyright (c) Steve Scherf et al.
# Submitted via: ExactAudioCopyFreeDBPlugin 1.0
#
DISCID=ab0b570e
DTITLE=Lena Valaitis - Ein schöner Tag
DYEAR=1995
DGENRE=Schlager
TTITLE0=Ein schöner Tag
TTITLE1=Ich bin verliebt
TTITLE2=Ich spreche alle Sprachen dieser Welt
TTITLE3=Von irgendwo ertönt ein Lied
TTITLE4=Immer die schönen Träume (Ein bißchen Glück)
TTITLE5=Da kommt José der Straßenmusikant
TTITLE6=Johnny Blue
TTITLE7=Bonjour mon amour
TTITLE8=Heinz, laß doch die Pauke stehen
TTITLE9=Oh Cavallo
TTITLE10=denn so ist Joe
TTITLE11=So wie ein Regenbogen
TTITLE12=Komm wieder, wenn du frei bist
TTITLE13=Wer gibt mir den Himmel zurück
EXTD=
EXTT0=
EXTT1=
EXTT2=
EXTT3=
EXTT4=
EXTT5=
EXTT6=
EXTT7=
EXTT8=
EXTT9=
EXTT10=
EXTT11=
EXTT12=
EXTT13=
PLAYORDER=
